HIERARCHY
ROOT Hips
{
	OFFSET 0.000000 0.000000 0.000000
	CHANNELS 6 Xposition Yposition Zposition Zrotation Yrotation Xrotation 
	JOINT LHipJoint
	{
		OFFSET 0.000000 0.000000 0.000000
		CHANNELS 3 Zrotation Yrotation Xrotation
		JOINT LeftUpLeg
		{
			OFFSET 1.363060 -1.794630 0.839290
			CHANNELS 3 Zrotation Yrotation Xrotation
			JOINT LeftLeg
			{
				OFFSET 2.448110 -6.726130 0.000000
				CHANNELS 3 Zrotation Yrotation Xrotation
				JOINT LeftFoot
				{
					OFFSET 2.562200 -7.039590 0.000000
					CHANNELS 3 Zrotation Yrotation Xrotation
					JOINT LeftToeBase
					{
						OFFSET 0.157640 -0.433110 2.322550
						CHANNELS 3 Zrotation Yrotation Xrotation
						End Site
						{
							OFFSET 0.000000 0.000000 0.000000
						}
					}
				}
			}
		}
	}
	JOINT RHipJoint
	{
		OFFSET 0.000000 0.000000 0.000000
		CHANNELS 3 Zrotation Yrotation Xrotation
		JOINT RightUpLeg
		{
			OFFSET -1.305520 -1.794630 0.839290
			CHANNELS 3 Zrotation Yrotation Xrotation
			JOINT RightLeg
			{
				OFFSET -2.542530 -6.985550 0.000000
				CHANNELS 3 Zrotation Yrotation Xrotation
				JOINT RightFoot
				{
					OFFSET -2.568260 -7.056230 0.000000
					CHANNELS 3 Zrotation Yrotation Xrotation
					JOINT RightToeBase
					{
						OFFSET -0.164730 -0.452590 2.363150
						CHANNELS 3 Zrotation Yrotation Xrotation
						End Site
						{
							OFFSET 0.000000 0.000000 0.000000
						}
					}
				}
			}
		}
	}
}
MOTION
Frames: 28
Frame Time: 0.008333
4.817163 17.217231 0.752419 -2.546234 -77.153090 16.546294 -10.784159 1.675763 3.920105 -4.781234 2.693575 -19.609363 -2.380731 -1.516958 -2.023508 0.082979 1.051297 2.099875 0.483400 -0.000000 -41.443100 9.339410 -1.891656 0.860496 8.577548 -12.702447 -15.219174 2.688107 1.648264 -0.242120 -1.886795 -10.774506 -0.550188 -2.270699 -0.000000 -59.140700
4.826722 17.218097 0.752585 -2.789624 -78.232123 16.871505 -10.812712 1.663041 3.773885 -4.987990 3.472251 -19.711344 -2.408053 -1.527681 -1.938697 0.115602 1.286854 1.949530 0.513900 0.000000 -41.231400 9.323211 -1.889904 0.966973 8.510784 -12.308766 -15.668540 2.734651 1.615612 0.047393 -1.756228 -10.054499 -0.495925 -2.153000 -0.000000 -59.423200
4.835024 17.218769 0.752468 -3.061758 -79.287626 17.241221 -10.838852 1.651829 3.634681 -5.197128 4.236137 -19.837411 -2.437897 -1.538919 -1.852502 0.146449 1.508172 1.805706 0.541500 0.000000 -41.043000 9.306938 -1.889003 1.079291 8.449363 -11.908486 -16.142384 2.779673 1.582869 0.353036 -1.631559 -9.358152 -0.453686 -2.037900 0.000001 -59.690100
4.841964 17.219189 0.751855 -3.354761 -80.317287 17.651661 -10.861850 1.642813 3.503727 -5.414329 4.989365 -19.999178 -2.472048 -1.550808 -1.758107 0.174056 1.703297 1.666553 0.564700 -0.000000 -40.872300 9.290851 -1.889177 1.201437 8.390890 -11.493525 -16.649488 2.822126 1.550019 0.683485 -1.514873 -8.693673 -0.432429 -1.925900 -0.000001 -59.928100
4.848500 17.219508 0.750747 -3.719639 -81.320283 18.125548 -10.885710 1.632589 3.371823 -5.615034 5.715759 -20.131510 -2.503994 -1.561553 -1.690108 0.200947 1.894610 1.544467 0.587000 -0.000000 -40.734900 9.273112 -1.888238 1.319803 8.330089 -11.057936 -17.118835 2.858440 1.517959 0.995756 -1.407865 -8.082977 -0.407782 -1.824600 0.000000 -60.157700
4.854410 17.219504 0.748867 -4.127590 -82.294886 18.651141 -10.907331 1.623094 3.244592 -5.818572 6.425564 -20.280914 -2.538616 -1.572145 -1.621059 0.224880 2.062640 1.428721 0.605600 -0.000000 -40.606800 9.255128 -1.886895 1.444360 8.265708 -10.598522 -17.599033 2.889432 1.485659 1.325816 -1.311509 -7.520892 -0.404620 -1.729400 0.000000 -60.353500
4.860110 17.219218 0.746212 -4.607260 -83.240300 19.248956 -10.927996 1.612830 3.118517 -6.017343 7.114470 -20.429671 -2.573868 -1.581846 -1.557255 0.246762 2.214406 1.319509 0.621400 0.000000 -40.485900 9.236271 -1.884295 1.570650 8.194986 -10.112239 -18.067875 2.913766 1.453292 1.661601 -1.226546 -7.015532 -0.416556 -1.642700 -0.000000 -60.520900
4.865950 17.218653 0.742681 -5.181412 -84.156426 19.938132 -10.947839 1.601019 2.992176 -6.210047 7.780000 -20.573667 -2.608926 -1.590299 -1.496669 0.267396 2.355698 1.214128 0.635200 0.000000 -40.363800 9.216514 -1.879781 1.696703 8.116035 -9.599450 -18.521910 2.931034 1.420345 2.004470 -1.153003 -6.567508 -0.444187 -1.564700 0.000000 -60.660000
4.871878 17.217734 0.738172 -5.852695 -85.043627 20.728353 -10.965602 1.588126 2.867417 -6.403043 8.420008 -20.724710 -2.644551 -1.597995 -1.431111 0.287455 2.491155 1.107415 0.647500 0.000001 -40.230100 9.196741 -1.873412 1.824168 8.026630 -9.063635 -18.977259 2.941784 1.385989 2.367576 -1.090181 -6.170026 -0.495385 -1.493100 -0.000001 -60.766200
4.878433 17.216573 0.732843 -6.728094 -85.902459 21.714189 -10.983520 1.572106 2.739231 -6.586205 9.035887 -20.863183 -2.678189 -1.603783 -1.363785 0.308085 2.628897 0.998539 0.659300 0.000000 -40.088900 9.175522 -1.864707 1.947207 7.928274 -8.506224 -19.409817 2.945709 1.350272 2.736664 -1.037550 -5.825203 -0.559233 -1.429600 -0.000001 -60.851400
4.885603 17.215157 0.726731 -7.952304 -86.732895 23.040939 -11.002352 1.552254 2.607267 -6.758475 9.627584 -20.989608 -2.709195 -1.607726 -1.291509 0.330105 2.774939 0.884906 0.671300 -0.000000 -39.941800 9.152135 -1.854303 2.065251 7.822336 -7.930110 -19.821105 2.943559 1.312847 3.112455 -0.994170 -5.528349 -0.633919 -1.373400 0.000000 -60.921100
4.892951 17.213411 0.719679 -9.657754 -87.534528 24.855377 -11.019431 1.530108 2.476817 -6.936666 10.194586 -21.132526 -2.740397 -1.611315 -1.199420 0.353554 2.929744 0.760970 0.683400 -0.000001 -39.781100 9.128234 -1.843618 2.184513 7.706267 -7.343083 -20.252032 2.936993 1.271835 3.524189 -0.958346 -5.262621 -0.735554 -1.319900 -0.000000 -60.961100
4.900419 17.211362 0.711766 -12.439612 -88.301777 27.749889 -11.037135 1.503459 2.346001 -7.117007 10.739701 -21.285746 -2.770860 -1.614886 -1.087297 0.378349 3.094302 0.627870 0.695700 -0.000001 -39.618400 9.101844 -1.835346 2.304287 7.582816 -6.748500 -20.695319 2.926853 1.226812 3.964104 -0.929494 -5.026276 -0.857798 -1.269600 0.000000 -60.980100
4.907740 17.208969 0.702920 -17.936374 -89.014268 33.368467 -11.054659 1.467799 2.215455 -7.307883 11.263788 -21.462289 -2.802105 -1.621403 -0.945735 0.402798 3.261841 0.485809 0.707700 0.000000 -39.457699 9.073360 -1.836243 2.430031 7.451188 -6.153551 -21.171625 2.914645 1.174579 4.443118 -0.907605 -4.812121 -1.007730 -1.220100 -0.000000 -60.972100
4.914821 17.206365 0.693368 -35.657037 -89.553961 51.213179 -11.047835 1.397025 2.072819 -7.483213 11.759024 -21.636170 -2.832432 -1.643725 -0.771260 0.420204 3.415703 0.347056 0.719400 0.000000 -39.318000 9.066234 -1.872578 2.570158 7.330138 -5.568662 -21.663918 2.901937 1.103173 4.927470 -0.899789 -4.640694 -1.178677 -1.173800 -0.000000 -60.950701
4.921801 17.203581 0.683216 -122.843767 -89.264826 138.521602 -10.738427 1.413807 1.939904 -7.535349 12.272276 -21.809841 -2.876811 -1.656319 -0.587283 0.443818 3.582493 0.187238 0.731099 0.000000 -39.210700 9.347091 -1.814238 2.702488 7.335638 -4.940531 -22.152366 2.866737 1.036030 5.425869 -0.890985 -4.487612 -1.335631 -1.130400 0.000000 -60.921901
4.927824 17.200401 0.671938 -163.005700 -88.437896 178.821568 -10.844769 1.488051 1.855909 -7.789853 12.820640 -22.056453 -2.911235 -1.602961 -0.443170 0.496183 3.815820 0.003216 0.739199 -0.000000 -39.125700 9.230650 -1.707263 2.787856 7.142746 -4.276060 -22.655551 2.838481 1.030706 6.049560 -0.850708 -4.256809 -1.504013 -1.086600 0.000000 -60.856000
4.933641 17.197160 0.660196 -171.432786 -87.746776 -172.627389 -10.906217 1.472408 1.739922 -7.994048 13.305592 -22.256283 -2.940619 -1.591487 -0.266250 0.527937 4.001449 -0.146375 0.747900 -0.000000 -39.086800 9.155949 -1.692045 2.903959 6.982217 -3.661016 -23.153947 2.815379 0.982498 6.627224 -0.836942 -4.097680 -1.692190 -1.046800 -0.000001 -60.793799
4.938566 17.193578 0.647304 -175.099632 -87.067133 -168.826686 -10.929108 1.456996 1.626305 -8.197319 13.787480 -22.484255 -2.975842 -1.584097 -0.060075 0.553719 4.152214 -0.294895 0.752201 0.000000 -39.067500 9.116480 -1.681291 3.031879 6.830826 -3.047308 -23.687966 2.788895 0.926819 7.238043 -0.829370 -3.956476 -1.905296 -1.007101 0.000000 -60.693200
4.943406 17.189999 0.633886 -176.965957 -86.395282 -166.846424 -10.939517 1.442085 1.510717 -8.367937 14.253349 -22.673169 -3.007594 -1.575889 0.129869 0.578188 4.298314 -0.428494 0.756400 0.000000 -39.087500 9.089622 -1.668667 3.152890 6.689756 -2.434139 -24.180964 2.758968 0.870443 7.833699 -0.825858 -3.840826 -2.111858 -0.971800 0.000000 -60.597500
4.947603 17.186149 0.619282 -178.247927 -85.740093 -165.449718 -10.943180 1.430279 1.399346 -8.541672 14.712657 -22.875196 -3.042456 -1.566884 0.333483 0.598901 4.417007 -0.559759 0.756800 -0.000000 -39.110800 9.068546 -1.656125 3.277276 6.543785 -1.823607 -24.684068 2.725702 0.812524 8.451959 -0.826397 -3.741380 -2.336853 -0.937501 0.000000 -60.469199
4.951814 17.182237 0.603896 -179.105936 -85.102253 -164.496939 -10.944490 1.418606 1.287470 -8.691748 15.155011 -23.046137 -3.074373 -1.556299 0.527072 0.618329 4.528499 -0.682030 0.756301 0.000000 -39.140600 9.050422 -1.641900 3.394098 6.400408 -1.218592 -25.148613 2.689275 0.754934 9.059809 -0.830806 -3.664987 -2.561843 -0.906400 -0.000000 -60.336800
4.955876 17.178236 0.587562 -179.759680 -84.485328 -163.763423 -10.944114 1.407330 1.176294 -8.825260 15.579672 -23.195172 -3.104255 -1.544341 0.718551 0.636790 4.633743 -0.801250 0.754700 -0.000000 -39.158299 9.034535 -1.626337 3.504393 6.256227 -0.622930 -25.582516 2.649913 0.697515 9.663683 -0.838882 -3.608035 -2.792950 -0.877300 0.000000 -60.194400
4.960069 17.174172 0.570331 179.729699 -83.890744 -163.194262 -10.942920 1.395424 1.065050 -8.936630 15.982367 -23.314759 -3.130303 -1.530794 0.907086 0.655867 4.743646 -0.920129 0.752800 -0.000000 -39.157600 9.020228 -1.608841 3.605073 6.113850 -0.040333 -25.975788 2.608090 0.640707 10.256288 -0.850329 -3.570369 -3.026500 -0.850200 0.000001 -60.053200
4.964097 17.169856 0.551825 179.230507 -83.321550 -162.648265 -10.939213 1.384385 0.955503 -9.045662 16.368275 -23.429973 -3.155842 -1.515742 1.113534 0.675229 4.853214 -1.048747 0.749300 -0.000000 -39.119600 9.008697 -1.590036 3.700515 5.965103 0.524340 -26.354682 2.563720 0.583004 10.860170 -0.864646 -3.543069 -3.277702 -0.822400 0.000001 -59.888100
4.968082 17.165459 0.532516 178.817986 -82.776164 -162.209196 -10.935201 1.372398 0.846431 -9.130459 16.727163 -23.514331 -3.175853 -1.499024 1.323248 0.698001 4.985817 -1.184057 0.747000 -0.000001 -39.063600 8.998398 -1.569473 3.784519 5.821816 1.069665 -26.689585 2.518166 0.526324 11.448321 -0.881256 -3.530108 -3.528808 -0.796000 0.000000 -59.739800
4.971713 17.160727 0.511910 178.378131 -82.255961 -161.753497 -10.928410 1.361721 0.738813 -9.217981 17.071996 -23.600008 -3.195399 -1.480292 1.564116 0.722578 5.127045 -1.336313 0.743100 -0.000000 -38.979100 8.991301 -1.547907 3.863065 5.672608 1.590727 -27.014495 2.471021 0.468346 12.052171 -0.899423 -3.519624 -3.799789 -0.767400 -0.000000 -59.570200
4.974904 17.155763 0.490404 177.982954 -81.758393 -161.356764 -10.920844 1.351123 0.633944 -9.289210 17.390289 -23.668636 -3.210096 -1.459830 1.821305 0.751736 5.297824 -1.500438 0.740300 0.000000 -38.895400 8.985482 -1.525564 3.933441 5.529433 2.090648 -27.311458 2.423644 0.410951 12.649198 -0.918910 -3.516702 -4.074111 -0.739000 -0.000001 -59.419800
